<?xml version="1.0" encoding="utf-8"?>
<!-- Generator: Adobe Illustrator 15.0.2, SVG Export Plug-In . SVG Version: 6.00 Build 0)  -->
<!DOCTYPE svg PUBLIC "-//W3C//DTD SVG 1.0//EN" "http://www.w3.org/TR/2001/REC-SVG-20010904/DTD/svg10.dtd">
<svg version="1.0" id="Layer_1" xmlns="http://www.w3.org/2000/svg" xmlns:xlink="http://www.w3.org/1999/xlink" x="0px" y="0px"
	 width="56.355px" height="60.271px" viewBox="0 0 56.355 60.271" enable-background="new 0 0 56.355 60.271" xml:space="preserve">
<path fill="#FFFFFF" d="M19.191,29.587c0.154,0.422,0.363,0.845,0.701,1.207L19.191,29.587z M35.05,36.011
	c0.4-0.558,0.894-1.056,1.434-1.479c0.088-0.094,0.31-0.16,0.336-0.281c0.058-0.139-0.072-0.264-0.148-0.348
	c-0.193-0.207-0.397-0.387-0.577-0.584c-0.447-0.486-0.695-1.049-0.887-1.652c-0.46-1.17-0.615-2.477-1.283-3.622
	c-1.92-3.207-6.712-6.134-10.642-4.936c-2.306,0.707-4.275,2.755-4.279,5.102c-0.011,0.159-0.033,0.305-0.015,0.478
	c0.035,0.115,0.02,0.221,0.044,0.324c0.023,0.196,0.112,0.373,0.159,0.573l0.701,1.207c0.166,0.187,0.322,0.369,0.545,0.5
	c0.351,0.297,0.808,0.5,1.24,0.685c0.148,0.078,0.314,0.114,0.463,0.147c0.385,0.148,0.791,0.242,1.146,0.414
	c0.127,0.086,0.241,0.146,0.364,0.263c0.052,0.034,0.093,0.098,0.146,0.147c0.376,0.367,0.607,0.877,0.804,1.387
	c0.076,0.304,0.146,0.613,0.213,0.929c0.216,1.282-0.059,2.612-0.283,3.922c-0.153,0.967-0.276,1.938-0.215,2.93
	c0.056,0.877,0.232,1.914,1.126,2.396c1.546,0.812,3.19,0.532,4.558-0.371c2.493-1.644,3.016-4.529,4.322-6.984
	c0.158-0.295,0.333-0.609,0.544-0.898C34.933,36.181,34.989,36.083,35.05,36.011z"/>
<path fill="none" d="M30.444,18.125c-0.11,0.125-0.207,0.327-0.284,0.504c0.032-0.051,0.067-0.099,0.1-0.149
	C30.322,18.375,30.376,18.208,30.444,18.125z"/>
<path fill="#FFFFFF" d="M36.543,11.873c-0.698-0.187-1.403-0.343-2.118-0.415c-1.23-0.127-2.373,0.213-3.588,0.334
	c-2.08,0.206-4.465,0-5.024,2.617c-0.222,1.035-0.226,2.016-1.363,2.432c-1.22,0.447-2.625-0.026-3.861,0.394
	c-2.438,0.826-2.426,4.115,0.074,4.957c2.83,0.951,5.631-0.73,7.864-2.283c0.179-0.123,0.365-0.202,0.562-0.291
	c0.462-0.211,0.798-0.57,1.072-0.986c0.077-0.177,0.174-0.379,0.284-0.504c-0.067,0.082-0.121,0.249-0.186,0.354
	c-0.031,0.052-0.066,0.1-0.1,0.149c-0.011,0.021-0.021,0.041-0.029,0.062c-0.059,0.134-0.085,0.284-0.127,0.438
	c-0.119,0.437-0.135,1.679-0.062,2.107c0.08,0.475,0.295,0.947,0.494,1.384c0.379,0.83,1.375,1.948,1.736,0.528
	c0.286-1.129-0.176-2.473-0.596-3.514c0.364,0.905,1.271,0.946,1.771,1.598c0.622,0.812-0.362,1.906,0.216,2.677
	c1.361,1.816,3.547-1.581,5.065-0.849c0.313,0.151,0.551,0.439,0.677,0.763c0.912,2.331-2.602,0.836-3.486,0.825
	c-0.3-0.003-0.562,0.147-0.817,0.297c-0.477,0.281-0.697,0.852-0.795,1.373c-0.062,0.331,0.037,0.684-0.027,1.015
	c-0.204,1.038,0.004,2.039,0.521,2.957c0.769,1.361,1.995,2.467,3.276,3.338c0.869,0.591,2.033,1.158,3.104,1.23
	c1.316,0.09,2.888-0.752,3.477-1.922c0.318-0.633,0.365-1.334,0.103-1.994c-0.133-0.332-1.039-1.83-1.441-1.797
	c0.801-0.064,1.598-0.01,2.318-0.443c0.193-0.116,0.356-0.264,0.508-0.423c0-0.019,0.004-0.036,0.004-0.056
	C46.048,21.217,42.216,15.12,36.543,11.873z"/>
<path fill="none" d="M22.544,14.163c0.899,0.494,1.931-0.479,2.346-1.258c0.236-0.441,0.401-0.939,0.451-1.44
	c0.02-0.21-0.189-1.302-0.104-1.394c-0.124,0.135-0.191,0.309-0.271,0.473c-0.364,0.748-1.098,1.318-1.825,1.687
	c-0.688,0.348-1.728,0.848-0.921,1.68C22.323,14.018,22.433,14.102,22.544,14.163z"/>
<path fill="#FFFFFF" d="M34.782,41.472c0.033-0.148,0.069-0.289,0.112-0.416c0.111-0.328,1.132-2.229,1.562-2.078
	c-1.195-0.418-2.403,1.049-2.972,1.889c-0.307,0.453-0.666,0.98-0.684,1.551c-0.02,0.685,0.359,1.179,1.047,0.861
	C34.504,42.976,34.626,42.151,34.782,41.472z"/>
<path fill="none" d="M22.229,12.161c0.872-0.668,1.42-1.471,0.06-1.178c-0.558,0.119-1.97,0.819-2.061,1.479
	C20.103,13.387,21.337,12.844,22.229,12.161z"/>
<path fill="none" d="M28.931,10.528c0.9,0.486,2.012,0.354,2.955,0.062c0.314-0.098,0.615-0.225,0.91-0.362
	c-1.509-0.47-3.105-0.729-4.75-0.801C28.157,9.885,28.544,10.319,28.931,10.528z"/>
</svg>
