<?xml version="1.0" encoding="utf-8"?>
<!-- Generator: Adobe Illustrator 15.0.2, SVG Export Plug-In . SVG Version: 6.00 Build 0)  -->
<!DOCTYPE svg PUBLIC "-//W3C//DTD SVG 1.0//EN" "http://www.w3.org/TR/2001/REC-SVG-20010904/DTD/svg10.dtd">
<svg version="1.0" id="Layer_1" xmlns="http://www.w3.org/2000/svg" xmlns:xlink="http://www.w3.org/1999/xlink" x="0px" y="0px"
	 width="99.576px" height="95.863px" viewBox="0 0 99.576 95.863" enable-background="new 0 0 99.576 95.863" xml:space="preserve">
<line opacity="0.5" fill="none" stroke="#FFFFFF" stroke-width="2" stroke-miterlimit="10" x1="38.991" y1="17.996" x2="61.093" y2="78.721"/>
<line opacity="0.5" fill="none" stroke="#FFFFFF" stroke-width="2" stroke-miterlimit="10" x1="29.191" y1="23.675" x2="70.729" y2="73.179"/>
<line opacity="0.5" fill="none" stroke="#FFFFFF" stroke-width="2" stroke-miterlimit="10" x1="21.926" y1="32.363" x2="77.892" y2="64.674"/>
<line opacity="0.5" fill="none" stroke="#FFFFFF" stroke-width="2" stroke-miterlimit="10" x1="18.069" y1="43.011" x2="81.711" y2="54.233"/>
<line opacity="0.5" fill="none" stroke="#FFFFFF" stroke-width="2" stroke-miterlimit="10" x1="18.088" y1="54.338" x2="81.729" y2="43.117"/>
<line opacity="0.5" fill="none" stroke="#FFFFFF" stroke-width="2" stroke-miterlimit="10" x1="21.979" y1="64.975" x2="77.944" y2="32.663"/>
<line opacity="0.5" fill="none" stroke="#FFFFFF" stroke-width="2" stroke-miterlimit="10" x1="29.273" y1="73.638" x2="70.812" y2="24.134"/>
<line opacity="0.5" fill="none" stroke="#FFFFFF" stroke-width="2" stroke-miterlimit="10" x1="39.091" y1="79.286" x2="61.192" y2="18.56"/>
<line opacity="0.5" fill="none" stroke="#FFFFFF" stroke-width="2" stroke-miterlimit="10" x1="50.248" y1="81.235" x2="50.247" y2="16.611"/>
<line opacity="0.5" fill="none" stroke="#FFFFFF" stroke-width="2" stroke-miterlimit="10" x1="31.902" y1="17.026" x2="68.05" y2="79.633"/>
<line opacity="0.5" fill="none" stroke="#FFFFFF" stroke-width="2" stroke-miterlimit="10" x1="22.21" y1="25.186" x2="77.591" y2="71.655"/>
<line opacity="0.5" fill="none" stroke="#FFFFFF" stroke-width="2" stroke-miterlimit="10" x1="15.893" y1="36.169" x2="83.826" y2="60.895"/>
<line opacity="0.5" fill="none" stroke="#FFFFFF" stroke-width="2" stroke-miterlimit="10" x1="13.713" y1="48.651" x2="86.007" y2="48.651"/>
<line opacity="0.5" fill="none" stroke="#FFFFFF" stroke-width="2" stroke-miterlimit="10" x1="15.934" y1="61.125" x2="83.867" y2="36.398"/>
<line opacity="0.5" fill="none" stroke="#FFFFFF" stroke-width="2" stroke-miterlimit="10" x1="22.286" y1="72.087" x2="77.667" y2="25.616"/>
<line opacity="0.5" fill="none" stroke="#FFFFFF" stroke-width="2" stroke-miterlimit="10" x1="32.006" y1="80.215" x2="68.151" y2="17.607"/>
<line opacity="0.5" fill="none" stroke="#FFFFFF" stroke-width="2" stroke-miterlimit="10" x1="43.919" y1="84.53" x2="56.472" y2="13.334"/>
<line opacity="0.5" fill="none" stroke="#FFFFFF" stroke-width="2" stroke-miterlimit="10" x1="56.59" y1="84.508" x2="44.035" y2="13.313"/>
<circle opacity="0.5" fill="#FFFFFF" cx="50.141" cy="48.322" r="20.812"/>
</svg>
