<?xml version="1.0" encoding="utf-8"?>
<!-- Generator: Adobe Illustrator 15.0.2, SVG Export Plug-In . SVG Version: 6.00 Build 0)  -->
<!DOCTYPE svg PUBLIC "-//W3C//DTD SVG 1.0//EN" "http://www.w3.org/TR/2001/REC-SVG-20010904/DTD/svg10.dtd">
<svg version="1.0" id="Layer_1" xmlns="http://www.w3.org/2000/svg" xmlns:xlink="http://www.w3.org/1999/xlink" x="0px" y="0px"
	 width="420.945px" height="58.104px" viewBox="0 0 420.945 58.104" enable-background="new 0 0 420.945 58.104"
	 xml:space="preserve">
<g>
	<path fill="#FFFFFF" d="M15.644,33.87V17.584c0-0.854,0.662-1.518,1.518-1.518c0.856,0,1.546,0.663,1.546,1.518v6.625h7.149v-6.625
		c0-0.854,0.662-1.518,1.519-1.518c0.855,0,1.545,0.663,1.545,1.518V33.87c0,0.855-0.688,1.52-1.545,1.52
		c-0.855,0-1.519-0.663-1.519-1.52v-6.625h-7.149v6.625c0,0.855-0.689,1.52-1.546,1.52C16.306,35.389,15.644,34.725,15.644,33.87z"
		/>
	<path fill="#FFFFFF" d="M49.618,18.467c1.712,1.822,2.788,4.252,2.788,6.984c0,2.733-1.076,5.19-2.788,6.983
		c-1.628,1.795-4.058,2.954-6.597,2.954c-2.65,0-5.079-1.159-6.764-2.954c-1.712-1.793-2.732-4.25-2.732-6.983
		c0-2.732,1.021-5.162,2.732-6.984c1.685-1.821,4.112-2.952,6.764-2.952C45.56,15.514,47.99,16.646,49.618,18.467z M49.259,25.451
		c0-1.877-0.744-3.616-1.877-4.831c-1.158-1.242-2.704-1.96-4.36-1.96c-1.768,0-3.312,0.718-4.473,1.96
		c-1.158,1.214-1.877,2.954-1.877,4.831s0.719,3.616,1.877,4.803c1.159,1.242,2.705,1.986,4.473,1.986
		c1.655,0,3.202-0.744,4.36-1.986C48.514,29.067,49.259,27.329,49.259,25.451z"/>
	<path fill="#FFFFFF" d="M82.323,18.357L75.559,34.45c-0.027,0.083-0.082,0.193-0.139,0.248l-0.026,0.027
		c-0.027,0.056-0.083,0.11-0.139,0.166c0,0.056-0.027,0.056-0.027,0.083c-0.056,0.027-0.139,0.083-0.193,0.138h-0.027
		c-0.083,0.056-0.138,0.139-0.248,0.166h-0.027c0,0-0.027,0-0.027,0.027c-0.055,0-0.138,0.026-0.221,0.055c-0.027,0-0.055,0-0.055,0
		c-0.083,0.028-0.166,0.028-0.276,0.028c-0.083,0-0.166,0-0.248-0.028c-0.056,0-0.083,0-0.083,0
		c-0.083-0.027-0.139-0.055-0.193-0.055c-0.026-0.027-0.026-0.027-0.056-0.027c-0.11-0.027-0.193-0.11-0.248-0.166
		c-0.027,0-0.027,0-0.027,0c-0.083-0.055-0.139-0.109-0.192-0.138c-0.027-0.027-0.027-0.027-0.057-0.083
		c-0.026-0.056-0.083-0.11-0.109-0.166c-0.056,0-0.056-0.027-0.056-0.027c-0.056-0.055-0.083-0.165-0.109-0.248l-3.616-8.557
		L65.54,34.45c-0.026,0.083-0.083,0.193-0.109,0.248c-0.027,0-0.027,0.027-0.027,0.027c-0.056,0.056-0.11,0.11-0.166,0.166
		c0,0.056-0.027,0.056-0.027,0.083c-0.056,0.027-0.109,0.083-0.166,0.138c-0.055,0-0.055,0-0.055,0
		c-0.083,0.056-0.166,0.139-0.221,0.166c-0.028,0-0.028,0-0.028,0s-0.027,0-0.027,0.027c-0.109,0-0.166,0.026-0.221,0.055
		c-0.027,0-0.056,0-0.083,0c-0.083,0.028-0.165,0.028-0.248,0.028s-0.193,0-0.276-0.028c-0.026,0-0.055,0-0.083,0
		c-0.081-0.027-0.138-0.055-0.192-0.055c-0.027-0.027-0.027-0.027-0.055-0.027c-0.083-0.027-0.193-0.11-0.248-0.166
		c-0.028,0-0.028,0-0.028,0c-0.083-0.055-0.11-0.109-0.193-0.138c-0.026-0.027-0.026-0.027-0.055-0.083
		c-0.056-0.056-0.083-0.11-0.138-0.166v-0.027c-0.057-0.055-0.083-0.165-0.14-0.248l-6.79-16.093
		c-0.304-0.745,0.027-1.656,0.828-1.96c0.745-0.331,1.656,0.027,1.96,0.801l5.41,12.78l3.562-8.475
		c0.248-0.606,0.827-0.938,1.436-0.938c0.579,0,1.159,0.331,1.436,0.938l3.562,8.475l5.383-12.78
		c0.331-0.773,1.214-1.132,2.016-0.801C82.294,16.701,82.654,17.612,82.323,18.357z"/>
	<path fill="#FFFFFF" d="M95.561,33.87V17.584c0-0.828,0.662-1.518,1.518-1.518h0.028c0,0,0,0,0.055,0h8.943
		c0.801,0,1.519,0.689,1.519,1.518c0,0.856-0.718,1.546-1.519,1.546h-7.48v5.052h6.433c0.827,0,1.519,0.718,1.519,1.519
		c0,0.855-0.689,1.545-1.519,1.545h-6.433v6.625c0,0.828-0.689,1.52-1.546,1.52C96.223,35.389,95.561,34.698,95.561,33.87z"/>
	<path fill="#FFFFFF" d="M119.902,30.833h-6.707l-1.354,3.589c-0.249,0.607-0.827,0.967-1.436,0.967
		c-0.193,0-0.358-0.028-0.524-0.083c-0.801-0.304-1.187-1.188-0.91-1.987l6.101-16.258c0.248-0.607,0.855-0.994,1.463-0.966
		c0.635-0.028,1.215,0.358,1.463,0.966l6.102,16.258c0.274,0.801-0.11,1.685-0.911,1.987c-0.139,0.055-0.331,0.083-0.524,0.083
		c-0.606,0-1.187-0.358-1.408-0.967L119.902,30.833z M118.771,27.797l-2.236-5.935l-2.235,5.935H118.771z"/>
	<path fill="#FFFFFF" d="M140.656,33.097c0.275,0.8-0.166,1.655-0.967,1.933c-0.11,0.027-0.331,0.082-0.607,0.082c0,0,0,0-0.026,0
		c-0.275,0-0.689-0.055-1.076-0.303c-0.359-0.222-0.663-0.58-0.884-0.968c-0.387-0.801-0.579-1.794-0.579-3.312
		c-0.027-0.524-0.14-0.883-0.331-1.187c-0.166-0.305-0.497-0.58-0.828-0.802c-0.58-0.386-1.298-0.605-1.546-0.662h-3.258v5.989
		c0,0.828-0.689,1.52-1.546,1.52c-0.855,0-1.519-0.69-1.519-1.52V17.584c0-0.854,0.662-1.518,1.519-1.518c0,0,0,0,0.027,0h4.913
		c3.285,0,5.907,2.649,5.907,5.935c0,1.822-0.828,3.423-2.153,4.527c0.359,0.275,0.69,0.607,0.966,1.021
		c0.554,0.802,0.911,1.821,0.911,2.98c-0.026,0.828,0.057,1.354,0.11,1.629C140.131,32.296,140.49,32.627,140.656,33.097z
		 M136.791,22c0-1.601-1.27-2.871-2.843-2.871h-3.396v5.688h3.396C135.521,24.816,136.791,23.546,136.791,22z"/>
	<path fill="#FFFFFF" d="M163.254,30.833h-6.707l-1.353,3.589c-0.248,0.607-0.828,0.967-1.437,0.967
		c-0.192,0-0.357-0.028-0.523-0.083c-0.801-0.304-1.188-1.188-0.911-1.987l6.101-16.258c0.248-0.607,0.855-0.994,1.464-0.966
		c0.635-0.028,1.215,0.358,1.463,0.966l6.101,16.258c0.275,0.801-0.11,1.685-0.911,1.987c-0.138,0.055-0.331,0.083-0.523,0.083
		c-0.607,0-1.188-0.358-1.408-0.967L163.254,30.833z M162.124,27.797l-2.235-5.935l-2.235,5.935H162.124z"/>
	<path fill="#FFFFFF" d="M194.444,18.357L187.68,34.45c-0.027,0.083-0.082,0.193-0.139,0.248l-0.026,0.027
		c-0.027,0.056-0.083,0.11-0.139,0.166c0,0.056-0.027,0.056-0.027,0.083c-0.056,0.027-0.139,0.083-0.193,0.138h-0.027
		c-0.083,0.056-0.138,0.139-0.248,0.166h-0.027c0,0-0.027,0-0.027,0.027c-0.055,0-0.138,0.026-0.221,0.055c-0.027,0-0.056,0-0.056,0
		c-0.082,0.028-0.165,0.028-0.275,0.028c-0.083,0-0.166,0-0.248-0.028c-0.056,0-0.083,0-0.083,0
		c-0.083-0.027-0.139-0.055-0.193-0.055c-0.026-0.027-0.026-0.027-0.056-0.027c-0.11-0.027-0.193-0.11-0.248-0.166
		c-0.027,0-0.027,0-0.027,0c-0.083-0.055-0.139-0.109-0.192-0.138c-0.027-0.027-0.027-0.027-0.057-0.083
		c-0.026-0.056-0.083-0.11-0.109-0.166c-0.056,0-0.056-0.027-0.056-0.027c-0.056-0.055-0.083-0.165-0.109-0.248l-3.616-8.557
		l-3.616,8.557c-0.026,0.083-0.083,0.193-0.109,0.248c-0.027,0-0.027,0.027-0.027,0.027c-0.056,0.056-0.11,0.11-0.166,0.166
		c0,0.056-0.027,0.056-0.027,0.083c-0.056,0.027-0.109,0.083-0.166,0.138c-0.055,0-0.055,0-0.055,0
		c-0.083,0.056-0.166,0.139-0.221,0.166c-0.028,0-0.028,0-0.028,0s-0.027,0-0.027,0.027c-0.109,0-0.166,0.026-0.221,0.055
		c-0.027,0-0.056,0-0.083,0c-0.083,0.028-0.165,0.028-0.248,0.028s-0.192,0-0.275-0.028c-0.027,0-0.056,0-0.083,0
		c-0.082-0.027-0.139-0.055-0.193-0.055c-0.027-0.027-0.027-0.027-0.055-0.027c-0.083-0.027-0.193-0.11-0.248-0.166
		c-0.028,0-0.028,0-0.028,0c-0.083-0.055-0.11-0.109-0.193-0.138c-0.026-0.027-0.026-0.027-0.055-0.083
		c-0.056-0.056-0.083-0.11-0.138-0.166v-0.027c-0.057-0.055-0.083-0.165-0.14-0.248l-6.79-16.093
		c-0.304-0.745,0.027-1.656,0.828-1.96c0.745-0.331,1.656,0.027,1.96,0.801l5.41,12.78l3.562-8.475
		c0.248-0.606,0.828-0.938,1.436-0.938c0.579,0,1.159,0.331,1.437,0.938l3.561,8.475l5.383-12.78
		c0.331-0.773,1.214-1.132,2.016-0.801C194.416,16.701,194.775,17.612,194.444,18.357z"/>
	<path fill="#FFFFFF" d="M205.946,30.833h-6.707l-1.353,3.589c-0.248,0.607-0.828,0.967-1.437,0.967
		c-0.193,0-0.358-0.028-0.524-0.083c-0.801-0.304-1.187-1.188-0.91-1.987l6.101-16.258c0.248-0.607,0.855-0.994,1.463-0.966
		c0.635-0.028,1.215,0.358,1.463,0.966l6.102,16.258c0.274,0.801-0.11,1.685-0.911,1.987c-0.138,0.055-0.331,0.083-0.524,0.083
		c-0.606,0-1.187-0.358-1.408-0.967L205.946,30.833z M204.815,27.797l-2.236-5.935l-2.234,5.935H204.815z"/>
	<path fill="#FFFFFF" d="M225.292,18.661l-5.658,7.756v7.453c0,0.855-0.662,1.52-1.519,1.52c-0.801,0-1.519-0.663-1.519-1.52v-7.453
		l-5.604-7.756c-0.524-0.663-0.386-1.601,0.304-2.098c0.69-0.497,1.629-0.359,2.099,0.331l4.721,6.459l4.72-6.459
		c0.524-0.69,1.463-0.828,2.126-0.331C225.623,17.06,225.761,17.998,225.292,18.661z"/>
	<path fill="#FFFFFF" d="M236.988,17.584c0-0.854,0.663-1.518,1.519-1.518c0.828,0,1.547,0.663,1.547,1.518V33.87
		c0,0.855-0.719,1.52-1.547,1.52c-0.854,0-1.519-0.663-1.519-1.52V17.584z"/>
	<path fill="#FFFFFF" d="M244.605,30.585c0.497-0.606,1.407-0.689,2.015-0.192c1.215,0.993,3.312,2.152,5.272,2.126
		c1.38,0,2.622-0.414,3.449-1.021c0.828-0.606,1.188-1.298,1.188-1.988c0-0.357-0.083-0.606-0.249-0.883
		c-0.165-0.274-0.414-0.553-0.828-0.828c-0.801-0.523-2.153-0.993-3.781-1.297h-0.056c-1.297-0.249-2.512-0.58-3.561-1.077
		c-1.05-0.496-1.96-1.187-2.567-2.152c-0.414-0.663-0.635-1.437-0.635-2.265c0-1.655,0.938-3.091,2.208-4.029
		c1.298-0.938,2.98-1.463,4.774-1.463c2.65,0,4.61,1.297,6.019,2.208c0.635,0.44,0.828,1.324,0.387,1.96
		c-0.414,0.662-1.297,0.854-1.96,0.414c-1.407-0.938-2.76-1.768-4.444-1.768c-1.241,0-2.346,0.386-3.091,0.938
		c-0.746,0.552-1.049,1.159-1.049,1.738c0,0.332,0.055,0.553,0.192,0.773c0.139,0.221,0.387,0.469,0.745,0.718
		c0.718,0.497,1.959,0.938,3.45,1.214h0.056c1.407,0.276,2.705,0.636,3.81,1.16c1.132,0.552,2.125,1.271,2.761,2.291
		c0.414,0.662,0.662,1.49,0.662,2.346c0,1.769-0.994,3.285-2.374,4.279c-1.353,0.993-3.146,1.572-5.105,1.572
		c-2.981-0.027-5.493-1.519-7.066-2.76C244.218,32.104,244.135,31.192,244.605,30.585z"/>
	<path fill="#FFFFFF" d="M283.71,19.13h-4.389v14.74c0,0.855-0.662,1.52-1.52,1.52c-0.826,0-1.518-0.663-1.518-1.52V19.13h-4.361
		c-0.854,0-1.519-0.718-1.519-1.546c0-0.854,0.663-1.518,1.519-1.518h11.786c0.828,0,1.52,0.663,1.52,1.518
		C285.229,18.412,284.539,19.13,283.71,19.13z"/>
	<path fill="#FFFFFF" d="M289.779,33.87V17.584c0-0.854,0.662-1.518,1.518-1.518c0.856,0,1.546,0.663,1.546,1.518v6.625h7.149
		v-6.625c0-0.854,0.662-1.518,1.52-1.518c0.854,0,1.545,0.663,1.545,1.518V33.87c0,0.855-0.689,1.52-1.545,1.52
		c-0.856,0-1.52-0.663-1.52-1.52v-6.625h-7.149v6.625c0,0.855-0.689,1.52-1.546,1.52C290.441,35.389,289.779,34.725,289.779,33.87z"
		/>
	<path fill="#FFFFFF" d="M309.344,33.87V17.584c0-0.854,0.661-1.518,1.518-1.518h0.028c0,0,0,0,0.055,0h8.943
		c0.801,0,1.519,0.663,1.519,1.518c0,0.856-0.718,1.546-1.519,1.546h-7.48v5.052h6.432c0.828,0,1.52,0.718,1.52,1.519
		c0,0.855-0.69,1.545-1.52,1.545h-6.432v5.08h7.48c0.801,0,1.519,0.689,1.519,1.545c0,0.828-0.718,1.52-1.519,1.52h-8.943
		c-0.055,0-0.055-0.028-0.055-0.028l-0.028,0.028C310.006,35.388,309.344,34.698,309.344,33.87z"/>
	<path fill="#FFFFFF" d="M333.379,30.585c0.497-0.606,1.407-0.689,2.016-0.192c1.215,0.993,3.312,2.152,5.271,2.126
		c1.38,0,2.622-0.414,3.45-1.021c0.828-0.606,1.188-1.298,1.188-1.988c0-0.357-0.083-0.606-0.249-0.883
		c-0.165-0.274-0.414-0.553-0.828-0.828c-0.801-0.523-2.153-0.993-3.781-1.297h-0.056c-1.297-0.249-2.513-0.58-3.562-1.077
		c-1.049-0.496-1.96-1.187-2.566-2.152c-0.414-0.663-0.636-1.437-0.636-2.265c0-1.655,0.938-3.091,2.208-4.029
		c1.298-0.938,2.981-1.463,4.775-1.463c2.65,0,4.61,1.297,6.018,2.208c0.636,0.44,0.828,1.324,0.388,1.96
		c-0.414,0.662-1.297,0.854-1.96,0.414c-1.407-0.938-2.761-1.768-4.444-1.768c-1.242,0-2.346,0.386-3.091,0.938
		c-0.746,0.552-1.049,1.159-1.049,1.738c0,0.332,0.055,0.553,0.191,0.773c0.14,0.221,0.387,0.469,0.746,0.718
		c0.717,0.497,1.959,0.938,3.45,1.214h0.055c1.408,0.276,2.705,0.636,3.811,1.16c1.132,0.552,2.125,1.271,2.761,2.291
		c0.413,0.662,0.662,1.49,0.662,2.346c0,1.769-0.994,3.285-2.374,4.279c-1.354,0.993-3.146,1.572-5.106,1.572
		c-2.98-0.027-5.493-1.519-7.065-2.76C332.993,32.104,332.91,31.192,333.379,30.585z"/>
	<path fill="#FFFFFF" d="M360.398,35.388c-4.444,0-7.979-3.59-7.979-7.979v-9.827c0-0.854,0.662-1.518,1.52-1.518
		c0.827,0,1.545,0.663,1.545,1.518v9.827c0,2.705,2.209,4.914,4.914,4.914c2.731,0,4.913-2.209,4.913-4.914v-9.827
		c0-0.854,0.689-1.518,1.546-1.518c0.855,0,1.518,0.663,1.518,1.518v9.827C368.375,31.799,364.814,35.388,360.398,35.388z"/>
	<path fill="#FFFFFF" d="M377.479,33.87c0,0.828-0.69,1.52-1.491,1.52c-0.855,0-1.518-0.69-1.518-1.52V17.833c0,0,0,0,0-0.026
		c-0.027-0.47,0.192-0.967,0.606-1.271c0.689-0.469,1.628-0.331,2.098,0.332l8.916,12.339V17.833c0-0.8,0.662-1.491,1.49-1.491
		s1.52,0.69,1.52,1.491V33.87c0,0.828-0.69,1.52-1.52,1.52c-0.44,0-0.854-0.222-1.132-0.553c-0.055-0.056-0.11-0.11-0.138-0.166
		l-8.833-12.256L377.479,33.87L377.479,33.87z"/>
	<path fill="#FFFFFF" d="M400.605,27.494v1.794c0,0.773-0.58,1.354-1.354,1.354c-0.718,0-1.353-0.58-1.353-1.354v-2.871
		c0-0.026,0.027-0.026,0.027-0.055c-0.027-0.027-0.027-0.027-0.027-0.055c0-0.719,0.635-1.354,1.353-1.354
		c1.738,0,3.146-1.38,3.146-3.091c0-1.739-1.408-3.092-3.146-3.092c-1.132,0-2.126,0.606-2.649,1.518
		c-0.388,0.663-1.215,0.883-1.877,0.497c-0.636-0.386-0.855-1.187-0.47-1.85c0.993-1.711,2.87-2.871,4.996-2.871
		c3.201,0,5.824,2.595,5.824,5.797C405.077,24.595,403.171,26.886,400.605,27.494z M400.605,33.539v0.497
		c0,0.773-0.58,1.354-1.354,1.354c-0.718,0-1.353-0.579-1.353-1.354v-0.497c0-0.745,0.635-1.353,1.353-1.353
		C400.025,32.186,400.605,32.793,400.605,33.539z"/>
</g>
</svg>
